<svg xmlns="http://www.w3.org/2000/svg" width="31.221" height="18.063" viewBox="0 0 31.221 18.063"><defs><style>.a{fill:#2ba4ef;}</style></defs><g transform="translate(0 -102.75)"><g transform="translate(0 102.75)"><path class="a" d="M335.665,229.65a2.966,2.966,0,0,0-2.965,2.965.711.711,0,1,0,1.421,0,1.555,1.555,0,0,1,1.55-1.55.708.708,0,1,0-.006-1.415Z" transform="translate(-311.397 -221.524)"/><path class="a" d="M29.1,108.833c-.173-.166-.359-.327-.551-.48h0l-2.625-2.228a6.888,6.888,0,0,0-3.522-1.261l.141.141-1.594-1.6h-.013a2.5,2.5,0,0,0-4.06,1.076,2.284,2.284,0,0,0-1.095-.352c-.064-.006-.134-.006-.2-.006a2.325,2.325,0,0,0-1.236.359,2.5,2.5,0,0,0-4.06-1.069h-.013l-1.594,1.6.141-.141A6.925,6.925,0,0,0,5.3,106.131l-2.625,2.228h0a5.578,5.578,0,0,0-.551.48,6.964,6.964,0,1,0,11.75,5.865,3.5,3.5,0,0,0,3.47,0,6.965,6.965,0,0,0,13.875-.864A6.905,6.905,0,0,0,29.1,108.833ZM6.967,118.6a4.751,4.751,0,1,1,4.751-4.751A4.749,4.749,0,0,1,6.967,118.6Zm8.651-5.4a1.543,1.543,0,1,1,1.543-1.543A1.544,1.544,0,0,1,15.617,113.193Zm8.651,5.4a4.751,4.751,0,1,1,4.751-4.751A4.749,4.749,0,0,1,24.268,118.6Z" transform="translate(0 -102.75)"/><path class="a" d="M65.465,229.65a2.966,2.966,0,0,0-2.965,2.965.711.711,0,1,0,1.421,0,1.555,1.555,0,0,1,1.55-1.55.708.708,0,1,0-.006-1.415Z" transform="translate(-58.498 -221.524)"/></g></g></svg>