<svg xmlns="http://www.w3.org/2000/svg" width="47.203" height="47.203" viewBox="0 0 47.203 47.203"><defs><style>.a{fill:#6a453b;}</style></defs><g transform="translate(0 0)"><path class="a" d="M41.9,23.88H27.832a4.077,4.077,0,0,0-4.073,4.073V42.021a4.078,4.078,0,0,0,4.073,4.073H41.9a4.078,4.078,0,0,0,4.073-4.073V27.953A4.077,4.077,0,0,0,41.9,23.88ZM34.866,42.3a7.313,7.313,0,1,1,7.313-7.313A7.321,7.321,0,0,1,34.866,42.3Zm7.548-13.114a1.73,1.73,0,1,1,1.73-1.73A1.732,1.732,0,0,1,42.414,29.186Z" transform="translate(-11.264 -11.322)"/><path class="a" d="M41.072,36.971a4.223,4.223,0,1,0,4.222,4.222A4.228,4.228,0,0,0,41.072,36.971Z" transform="translate(-17.47 -17.528)"/><path class="a" d="M23.6,0A23.6,23.6,0,1,0,47.2,23.6,23.6,23.6,0,0,0,23.6,0ZM37.8,30.7a7.17,7.17,0,0,1-7.163,7.163H16.567A7.171,7.171,0,0,1,9.4,30.7V16.631a7.171,7.171,0,0,1,7.163-7.163H30.636A7.171,7.171,0,0,1,37.8,16.631Z" transform="translate(0 0)"/></g></svg>