<svg xmlns="http://www.w3.org/2000/svg" width="47.203" height="47.203" viewBox="0 0 47.203 47.203"><defs><style>.a{fill:#cb2027;}.b{fill:#f1f2f2;}</style></defs><ellipse class="a" cx="23.602" cy="23.602" rx="23.602" ry="23.602" transform="translate(0 0)"/><g transform="translate(12.201 10.346)"><path class="b" d="M42.306,45.852c-1.784-.138-2.534-1.023-3.933-1.872-.769,4.035-1.709,7.9-4.493,9.924-.86-6.1,1.261-10.68,2.247-15.542-1.68-2.827.2-8.518,3.744-7.116,4.36,1.724-3.775,10.513,1.686,11.61,5.7,1.146,8.029-9.892,4.493-13.483-5.108-5.184-14.87-.118-13.669,7.3.292,1.814,2.167,2.365.749,4.868-3.269-.724-4.245-3.3-4.119-6.74.2-5.627,5.056-9.567,9.925-10.112,6.157-.689,11.936,2.261,12.734,8.053.9,6.537-2.78,13.616-9.363,13.108Z" transform="translate(-29 -24.593)"/></g></svg>