<svg xmlns="http://www.w3.org/2000/svg" width="47.203" height="47.203" viewBox="0 0 47.203 47.203"><defs><style>.a{fill:#55acee;}.b{fill:#f1f2f2;}</style></defs><ellipse class="a" cx="23.602" cy="23.602" rx="23.602" ry="23.602" transform="translate(0 0)"/><g transform="translate(10.561 14.316)"><path class="b" d="M52.6,36.674a11.256,11.256,0,0,1-3.24.887,5.657,5.657,0,0,0,2.481-3.121,11.294,11.294,0,0,1-3.582,1.369,5.646,5.646,0,0,0-9.614,5.146,16.014,16.014,0,0,1-11.628-5.9,5.648,5.648,0,0,0,1.746,7.532,5.6,5.6,0,0,1-2.555-.706c0,.024,0,.048,0,.072a5.645,5.645,0,0,0,4.526,5.531,5.663,5.663,0,0,1-2.547.1,5.647,5.647,0,0,0,5.27,3.918A11.388,11.388,0,0,1,25.1,53.84a15.958,15.958,0,0,0,8.647,2.535c10.377,0,16.051-8.6,16.051-16.052,0-.244-.005-.488-.016-.73a11.44,11.44,0,0,0,2.815-2.92Z" transform="translate(-25.103 -34.028)"/></g></svg>