<svg xmlns="http://www.w3.org/2000/svg" width="20.62" height="27.11" viewBox="0 0 20.62 27.11"><defs><style>.a{fill:#009df0;}</style></defs><g transform="translate(-41.895)"><path class="a" d="M109.993,13.259c3.014,0,5.458-2.968,5.458-6.629S114.649,0,109.993,0s-5.458,2.968-5.458,6.629S106.979,13.259,109.993,13.259Z" transform="translate(-57.788)"/><path class="a" d="M41.9,300.487c0-.223,0-.063,0,0Z" transform="translate(0 -277.106)"/><path class="a" d="M308.085,301.689c0-.061,0-.424,0,0Z" transform="translate(-245.571 -278.133)"/><path class="a" d="M62.514,187.086c-.1-6.378-.934-8.2-7.308-9.346a4.478,4.478,0,0,1-5.977,0c-6.3,1.138-7.188,2.928-7.3,9.139-.01.507-.014.534-.016.475,0,.11,0,.314,0,.67,0,0,1.518,3.059,10.308,3.059s10.308-3.059,10.308-3.059c0-.229,0-.388,0-.5A4.107,4.107,0,0,1,62.514,187.086Z" transform="translate(-0.012 -163.973)"/></g></svg>