<svg xmlns="http://www.w3.org/2000/svg" width="25.987" height="25.987" viewBox="0 0 25.987 25.987"><defs><style>.a{fill:#009df0;}</style></defs><path class="a" d="M9.44,354.445H5.234A5.233,5.233,0,0,0,0,359.664v.5a2.287,2.287,0,0,0,2.287,2.282H4.563v-2.3a.761.761,0,0,1,1.523,0v2.3h3.2l.946-5.509a3.481,3.481,0,0,1-.793-2.215Zm0,0" transform="translate(0 -336.455)"/><path class="a" d="M313.709,354.445h-4.3v.273a3.48,3.48,0,0,1-.793,2.214l.946,5.509h3.292v-2.3a.761.761,0,0,1,1.523,0v2.3h2.276a2.287,2.287,0,0,0,2.287-2.282v-.5A5.233,5.233,0,0,0,313.709,354.445Zm0,0" transform="translate(-292.957 -336.455)"/><path class="a" d="M148.729,175.7V174.8a5.787,5.787,0,0,0,3.807-5.426v-3.525H140.949l0,3.525a5.786,5.786,0,0,0,3.807,5.426v.895a1.975,1.975,0,0,0,.91,1.663l-1.04,6.06h4.232l-1.04-6.06A1.975,1.975,0,0,0,148.729,175.7Zm0,0" transform="translate(-133.795 -157.434)"/><path class="a" d="M101.738,6.935H115.86a.76.76,0,1,0,0-1.52h-1.523a5.483,5.483,0,0,0-1.621-3.8A5.541,5.541,0,0,0,110.829.382V2.722a.761.761,0,0,1-1.523,0V.023C109.14.008,108.97,0,108.8,0s-.341.008-.508.023v2.7a.761.761,0,0,1-1.523,0V.382a5.514,5.514,0,0,0-3.507,5.033h-1.523a.76.76,0,1,0,0,1.52Zm0,0" transform="translate(-95.851)"/></svg>