<svg xmlns="http://www.w3.org/2000/svg" viewBox="0 0 40.004 40.004"><g transform="translate(-511 -5438)"><g transform="translate(511 5438)"><path d="M23.86,27.865a4,4,0,1,0-4-4.005A4.011,4.011,0,0,0,23.86,27.865Z" transform="translate(-3.859 -3.858)"/><path d="M34.748,17.816V13.96l-.5,0-3.355.01.013,3.857Z" transform="translate(-6.003 -2.713)"/><path d="M20,0A20,20,0,1,0,40,20,20.025,20.025,0,0,0,20,0ZM31.377,17.668v9.314a4.4,4.4,0,0,1-4.4,4.4H13.023a4.4,4.4,0,0,1-4.4-4.4V13.024a4.4,4.4,0,0,1,4.4-4.4H26.98a4.4,4.4,0,0,1,4.4,4.4Z"/><path d="M28.839,24.263a6.222,6.222,0,1,1-11.986-2.334h-3.4v9.314a2.18,2.18,0,0,0,2.18,2.179H29.594a2.181,2.181,0,0,0,2.18-2.179V21.929h-3.4A6.137,6.137,0,0,1,28.839,24.263Z" transform="translate(-2.615 -4.261)"/></g></g></svg>