<svg xmlns="http://www.w3.org/2000/svg" width="188.618" height="61.96" viewBox="0 0 188.618 61.96"><defs><style>.a{fill:#fff;}</style></defs><path class="a" d="M-6845.914-2123.032h-174.618a7.008,7.008,0,0,1-7-7v-47.96a7.008,7.008,0,0,1,7-7h174.618a7.008,7.008,0,0,1,7,7v47.96A7.008,7.008,0,0,1-6845.914-2123.032Zm-143.681-30.667-14.84,14.84a4.162,4.162,0,0,0,2.062.563,4.177,4.177,0,0,0,2.009-.524l16.829-9.288-6.06-5.591Zm-16.246-14.984h0a3.78,3.78,0,0,0-.564,1.971v24.519a3.781,3.781,0,0,0,.527,1.924l14.8-14.8-14.76-13.615Zm133.149,22.579v1.653a3.81,3.81,0,0,0,1.028.159c1.382,0,2.375-.808,2.953-2.4l3.779-10.951h-2.277l-1.933,6.452-2.012-6.452h-2.3l3.34,9.466-.309.818a1.933,1.933,0,0,1-.646.988,2.091,2.091,0,0,1-1.217.294l-.4-.026Zm-53.4-1.143h0l-1.01,1.284a3.634,3.634,0,0,0,1.515,1.137,5.082,5.082,0,0,0,2.044.436,4.443,4.443,0,0,0,3.141-1.081,3.846,3.846,0,0,0,1.166-2.952v-9.22h-1.926l-.1.958a3.151,3.151,0,0,0-2.559-1.134,3.358,3.358,0,0,0-2.764,1.323,5.586,5.586,0,0,0-1.041,3.538,5.771,5.771,0,0,0,1.059,3.674,3.344,3.344,0,0,0,2.728,1.328,3.164,3.164,0,0,0,2.462-1.028v.64a2.222,2.222,0,0,1-.616,1.693,2.376,2.376,0,0,1-1.679.575,3.068,3.068,0,0,1-2.425-1.169Zm47.944-6.7a5.507,5.507,0,0,0-3.229.813,2.712,2.712,0,0,0-1.13,2.333,2.621,2.621,0,0,0,.907,2.021,3.367,3.367,0,0,0,2.337.818,3.343,3.343,0,0,0,2.5-1.063,3.31,3.31,0,0,0,.245.887h2.18v-.15a4.881,4.881,0,0,1-.362-2.048v-4.289a3,3,0,0,0-1.019-2.36,4,4,0,0,0-2.664-.839,4.955,4.955,0,0,0-1.989.388,3.491,3.491,0,0,0-1.411,1.067,2.388,2.388,0,0,0-.518,1.464h2.136a1.133,1.133,0,0,1,.465-.927,1.89,1.89,0,0,1,1.2-.365,1.652,1.652,0,0,1,1.258.445,1.683,1.683,0,0,1,.412,1.182v.624Zm-30.358-3.876a4.085,4.085,0,0,0-2.213.624,4.211,4.211,0,0,0-1.543,1.744,5.748,5.748,0,0,0-.548,2.545v.264a4.662,4.662,0,0,0,1.261,3.406,4.434,4.434,0,0,0,3.291,1.279,4.788,4.788,0,0,0,2.139-.471,3.868,3.868,0,0,0,1.526-1.323l-1.152-1.1a2.9,2.9,0,0,1-2.39,1.187,2.368,2.368,0,0,1-1.735-.686,2.862,2.862,0,0,1-.787-1.863h6.213v-.863a5.257,5.257,0,0,0-1.06-3.506A3.747,3.747,0,0,0-6908.508-2157.821Zm-24.977,0a4.4,4.4,0,0,0-2.3.6,4.047,4.047,0,0,0-1.556,1.721,5.658,5.658,0,0,0-.554,2.519v.106a5.16,5.16,0,0,0,1.208,3.573,4.153,4.153,0,0,0,3.222,1.34,4.441,4.441,0,0,0,2.325-.607,4.007,4.007,0,0,0,1.547-1.714,5.7,5.7,0,0,0,.54-2.513l-.009-.5a4.875,4.875,0,0,0-1.3-3.288A4.169,4.169,0,0,0-6933.485-2157.821Zm-10.249,0a4.407,4.407,0,0,0-2.3.6,4.08,4.08,0,0,0-1.555,1.721,5.654,5.654,0,0,0-.554,2.519v.106a5.161,5.161,0,0,0,1.21,3.573,4.147,4.147,0,0,0,3.221,1.34,4.431,4.431,0,0,0,2.324-.607,3.981,3.981,0,0,0,1.547-1.714,5.66,5.66,0,0,0,.542-2.513l-.009-.5a4.9,4.9,0,0,0-1.3-3.288A4.175,4.175,0,0,0-6943.734-2157.821Zm-11.163-3.286a4.833,4.833,0,0,0-3.875,1.63,6.8,6.8,0,0,0-1.39,4.531v1a7.369,7.369,0,0,0,.7,3.169,4.892,4.892,0,0,0,1.912,2.086,5.537,5.537,0,0,0,2.849.73,7.919,7.919,0,0,0,2.8-.466,4.276,4.276,0,0,0,1.924-1.372v-4.9h-4.852v1.688h2.637v2.5a3.205,3.205,0,0,1-2.425.774,2.9,2.9,0,0,1-2.43-1.146,5.232,5.232,0,0,1-.875-3.222v-.984a5.521,5.521,0,0,1,.8-3.159,2.64,2.64,0,0,1,2.272-1.078,2.459,2.459,0,0,1,2.681,2.312h2.18a4.552,4.552,0,0,0-1.511-3.041A5.127,5.127,0,0,0-6954.9-2161.107Zm68.23-.527v13.5h2.136v-13.5Zm-11.434.7v12.8h2.224v-4.755h2.646a5.206,5.206,0,0,0,3.457-1.046,3.637,3.637,0,0,0,1.236-2.926,3.773,3.773,0,0,0-1.261-2.954,4.975,4.975,0,0,0-3.408-1.116Zm-18.81-.7v13.5h2.136v-13.5Zm-65.958,1.21-5.3,5.3,6.494,5.989,3.522-1.943a3.832,3.832,0,0,0,2.028-3.372,3.823,3.823,0,0,0-2.03-3.369l-4.714-2.6Zm-19.482-10.175a4.2,4.2,0,0,0-2.017.526l14.716,13.577,4.943-4.944-15.656-8.642A4.123,4.123,0,0,0-7002.351-2170.6Zm68.883,20.935a1.976,1.976,0,0,1-1.687-.831,3.852,3.852,0,0,1-.607-2.3,4.169,4.169,0,0,1,.616-2.483,1.973,1.973,0,0,1,1.661-.831,1.988,1.988,0,0,1,1.683.843,3.809,3.809,0,0,1,.619,2.286,4.239,4.239,0,0,1-.6,2.469A1.958,1.958,0,0,1-6933.468-2149.664Zm-10.249,0a1.979,1.979,0,0,1-1.688-.831,3.857,3.857,0,0,1-.606-2.3,4.182,4.182,0,0,1,.615-2.483,1.978,1.978,0,0,1,1.662-.831,1.988,1.988,0,0,1,1.683.843,3.791,3.791,0,0,1,.621,2.286,4.232,4.232,0,0,1-.6,2.469A1.955,1.955,0,0,1-6943.716-2149.664Zm64.845-.009a1.587,1.587,0,0,1-1.094-.365,1.252,1.252,0,0,1-.409-.98,1.34,1.34,0,0,1,.6-1.168,3.164,3.164,0,0,1,1.785-.414h1.152v1.794a2.072,2.072,0,0,1-.84.825A2.429,2.429,0,0,1-6878.871-2149.673Zm-44.42-.027a1.888,1.888,0,0,1-1.621-.822,3.853,3.853,0,0,1-.583-2.254,4.319,4.319,0,0,1,.583-2.462,1.9,1.9,0,0,1,1.639-.834,2.034,2.034,0,0,1,1.9,1.081v4.184A2.065,2.065,0,0,1-6923.291-2149.7Zm16.735-4.078h-4.071a3.2,3.2,0,0,1,.691-1.714,1.806,1.806,0,0,1,1.418-.616,1.8,1.8,0,0,1,1.391.55,2.618,2.618,0,0,1,.57,1.621v.158Zm13.349-.9h-2.67v-4.464h2.732a2.446,2.446,0,0,1,1.741.637,2.223,2.223,0,0,1,.633,1.656,2.06,2.06,0,0,1-.624,1.614A2.639,2.639,0,0,1-6893.207-2154.675Z" transform="translate(7027.532 2184.992)"/></svg>