<svg xmlns="http://www.w3.org/2000/svg" width="188.618" height="61.962" viewBox="0 0 188.618 61.962"><defs><style>.a{fill:#fff;}</style></defs><path class="a" d="M-7054.157-2123.682h-174.617a7.008,7.008,0,0,1-7-7v-47.959a7.01,7.01,0,0,1,7-7h174.617a7.01,7.01,0,0,1,7,7v47.959A7.008,7.008,0,0,1-7054.157-2123.682Zm-152.437-39.515a6.63,6.63,0,0,0-5.435,2.757,11.407,11.407,0,0,0-2.163,7.158,19.707,19.707,0,0,0,2.813,9.624c1.892,3.29,3.83,4.958,5.762,4.958a6.989,6.989,0,0,0,2.526-.648,7.4,7.4,0,0,1,2.719-.632,8.46,8.46,0,0,1,2.889.612,8.9,8.9,0,0,0,2.68.61c1.625,0,3.28-1.262,4.919-3.752a18.615,18.615,0,0,0,2.354-4.783,5.848,5.848,0,0,1-3.023-2.411,7.318,7.318,0,0,1-1.322-4.268,6.842,6.842,0,0,1,1.244-3.962,12.5,12.5,0,0,1,2.183-2.259,9.972,9.972,0,0,0-1.99-1.914,7.034,7.034,0,0,0-4.077-1.244,10.833,10.833,0,0,0-3.311.652,9.627,9.627,0,0,1-2.739.65,12.226,12.226,0,0,1-2.64-.574A12.849,12.849,0,0,0-7206.595-2163.2Zm63.447,4.9v13.166h2.136v-4.511a3.23,3.23,0,0,0,2.5,1.028,3.224,3.224,0,0,0,2.689-1.311,5.7,5.7,0,0,0,1-3.519v-.133a5.848,5.848,0,0,0-.988-3.6,3.259,3.259,0,0,0-2.729-1.3,3.156,3.156,0,0,0-2.559,1.144l-.087-.966Zm-10.135,0v13.166h2.136v-4.511a3.238,3.238,0,0,0,2.506,1.028,3.224,3.224,0,0,0,2.689-1.311,5.688,5.688,0,0,0,1-3.519v-.133a5.835,5.835,0,0,0-.99-3.6,3.259,3.259,0,0,0-2.729-1.3,3.148,3.148,0,0,0-2.557,1.144l-.089-.966Zm61.858-.178a4.1,4.1,0,0,0-2.215.627,4.189,4.189,0,0,0-1.542,1.743,5.718,5.718,0,0,0-.55,2.546v.261a4.663,4.663,0,0,0,1.262,3.407,4.431,4.431,0,0,0,3.291,1.277,4.787,4.787,0,0,0,2.141-.467,3.887,3.887,0,0,0,1.525-1.324l-1.151-1.1a2.906,2.906,0,0,1-2.392,1.186,2.379,2.379,0,0,1-1.736-.685,2.892,2.892,0,0,1-.786-1.865h6.214v-.859a5.259,5.259,0,0,0-1.059-3.507A3.745,3.745,0,0,0-7091.424-2158.472Zm-16.507,0a4.4,4.4,0,0,0-2.3.6,4.068,4.068,0,0,0-1.555,1.721,5.624,5.624,0,0,0-.554,2.519v.105a5.166,5.166,0,0,0,1.208,3.572,4.148,4.148,0,0,0,3.222,1.338,4.408,4.408,0,0,0,2.324-.6,3.989,3.989,0,0,0,1.547-1.712,5.67,5.67,0,0,0,.541-2.513l-.009-.5a4.89,4.89,0,0,0-1.3-3.287A4.164,4.164,0,0,0-7107.931-2158.472Zm-9.192,1.76v5.386c0,1.8.828,2.715,2.46,2.715a5.259,5.259,0,0,0,1.405-.2v-1.653a3.241,3.241,0,0,1-.746.087,1.008,1.008,0,0,1-.768-.24,1.165,1.165,0,0,1-.216-.788v-5.308h1.678v-1.582h-1.678v-2.312h-2.135v2.312h-1.565v1.582Zm-11.847,4.061a3.567,3.567,0,0,0,.645,2.11,4.3,4.3,0,0,0,1.811,1.416,6.254,6.254,0,0,0,2.553.514,5.327,5.327,0,0,0,3.327-.944,3.056,3.056,0,0,0,1.226-2.542,3.393,3.393,0,0,0-.421-1.72,3.8,3.8,0,0,0-1.327-1.3,9.767,9.767,0,0,0-2.4-1.011,7.6,7.6,0,0,1-2.145-.913,1.415,1.415,0,0,1-.65-1.175,1.551,1.551,0,0,1,.6-1.3,2.726,2.726,0,0,1,1.693-.465,2.608,2.608,0,0,1,1.8.567,2.006,2.006,0,0,1,.628,1.569h2.215a3.638,3.638,0,0,0-.6-2.02,3.932,3.932,0,0,0-1.646-1.4,5.554,5.554,0,0,0-2.38-.492,5.132,5.132,0,0,0-3.274,1,3.143,3.143,0,0,0-1.262,2.55,3.288,3.288,0,0,0,1.75,2.864,10.163,10.163,0,0,0,2.46,1.037,7.232,7.232,0,0,1,2.139.924,1.558,1.558,0,0,1,.594,1.3,1.525,1.525,0,0,1-.584,1.244,2.761,2.761,0,0,1-1.745.47,3.169,3.169,0,0,1-2.065-.6,2.072,2.072,0,0,1-.721-1.687Zm27.271-5.642v9.51h2.136v-6.5a1.965,1.965,0,0,1,1.978-1.124,5.639,5.639,0,0,1,.87.067l.009-2a2.009,2.009,0,0,0-.755-.125,2.416,2.416,0,0,0-2.145,1.242l-.052-1.064Zm-61.146,6.528h4.958l1.046,2.982h2.321l-4.843-12.8h-2l-4.834,12.8h2.312l1.037-2.978h0Zm-32-18.782a7.662,7.662,0,0,0-4.785,2.833,8.778,8.778,0,0,0-1.493,4.919,10.712,10.712,0,0,0,1.99-.325,5.474,5.474,0,0,0,2.068-1.378,7.923,7.923,0,0,0,1.78-2.642,7.323,7.323,0,0,0,.554-2.6c0-.042,0-.107-.009-.192s-.009-.147-.009-.191a1.744,1.744,0,0,1-.047-.211,1.979,1.979,0,0,0-.049-.211Zm86.931,20.233a1.977,1.977,0,0,1-1.687-.83,3.844,3.844,0,0,1-.607-2.3,4.165,4.165,0,0,1,.616-2.484,1.966,1.966,0,0,1,1.66-.83,1.989,1.989,0,0,1,1.684.841,3.812,3.812,0,0,1,.621,2.288,4.265,4.265,0,0,1-.6,2.47A1.959,1.959,0,0,1-7107.913-2150.315Zm-31.2,0a1.994,1.994,0,0,1-1.9-1.106v-4.22a1.978,1.978,0,0,1,1.881-1.082,1.853,1.853,0,0,1,1.622.837,4,4,0,0,1,.566,2.259,4.4,4.4,0,0,1-.576,2.491A1.853,1.853,0,0,1-7139.114-2150.315Zm-10.133,0a2,2,0,0,1-1.9-1.106v-4.22a1.978,1.978,0,0,1,1.881-1.082,1.849,1.849,0,0,1,1.622.837,4,4,0,0,1,.566,2.259,4.389,4.389,0,0,1-.576,2.491A1.846,1.846,0,0,1-7149.247-2150.315Zm-9.263-3.241h-3.71l1.854-5.31,1.856,5.308Zm69.039-.872h-4.072a3.2,3.2,0,0,1,.69-1.712,1.818,1.818,0,0,1,1.42-.616,1.8,1.8,0,0,1,1.389.547,2.614,2.614,0,0,1,.57,1.624v.156Z" transform="translate(7235.775 2185.644)"/></svg>