<svg xmlns="http://www.w3.org/2000/svg" viewBox="0 0 16.636 19.942"><defs><style>.a{opacity:0.5;}.b{fill:#fff;}</style></defs><g transform="translate(-339.379 -10.714)"><g class="a" transform="translate(339.379 10.714)"><g transform="translate(0 0)"><path class="b" d="M54.009,14.951a.786.786,0,0,0,.832.832h.832v2.911a1.248,1.248,0,0,0,2.5,0V15.783h1.664v2.911a1.248,1.248,0,1,0,2.5,0V15.783h.832a.786.786,0,0,0,.832-.832V6.633H54.009ZM51.93,6.633a1.279,1.279,0,0,0-1.248,1.248V13.7a1.248,1.248,0,0,0,2.5,0V7.881A1.279,1.279,0,0,0,51.93,6.633Zm14.14,0a1.279,1.279,0,0,0-1.248,1.248V13.7a1.248,1.248,0,0,0,2.5,0V7.881A1.279,1.279,0,0,0,66.07,6.633ZM61.911,1.809,62.992.727a.4.4,0,0,0,0-.582.4.4,0,0,0-.582,0L61.162,1.393A3.665,3.665,0,0,0,59,.81a4.953,4.953,0,0,0-2.246.5L55.59.062a.918.918,0,0,0-.665,0,.918.918,0,0,0,0,.665l1.081,1.081a5.081,5.081,0,0,0-2,3.993h9.981A4.808,4.808,0,0,0,61.911,1.809ZM57.336,4.138H56.5V3.306h.832Zm4.159,0h-.832V3.306H61.5Z" transform="translate(-50.682 0.001)"/></g></g></g></svg>