<svg xmlns="http://www.w3.org/2000/svg" viewBox="0 0 16.255 19.963"><defs><style>.a{fill:#fff;}</style></defs><g transform="translate(0)"><path class="a" d="M61.124,10.607a4.517,4.517,0,0,1,2.155-3.8,4.662,4.662,0,0,0-3.65-1.978c-1.555-.157-3.033.915-3.822.915s-2-.892-3.294-.869a4.884,4.884,0,0,0-4.129,2.5c-1.76,3.055-.451,7.58,1.265,10.058.838,1.213,1.838,2.575,3.151,2.526,1.264-.05,1.742-.818,3.27-.818s1.958.818,3.3.793c1.36-.025,2.222-1.236,3.055-2.452A11.007,11.007,0,0,0,63.8,14.645,4.409,4.409,0,0,1,61.124,10.607ZM58.61,3.188A4.4,4.4,0,0,0,59.649,0a4.475,4.475,0,0,0-2.94,1.512A4.185,4.185,0,0,0,55.649,4.6,3.7,3.7,0,0,0,58.61,3.188Z" transform="translate(-47.548)"/></g></svg>